PathFileType	4	(X/Y/Z)	C:/Users/beibeiliu/ov580/test_trc/User2\sequence.7_training_dense_right.trc
DataRate	CameraRate	NumFrames	NumMarkers	Units	OrigDataRate	OrigDataStartFrame	OrigNumFrames
120	120	20	19	mm	120	27	79
Frame#	Time	ThumbCMC			ThumbMCP			ThumbIP			ThumbTip			IndexMCP			IndexPIP			IndexTip			MiddleMCP			MiddlePIP			MiddleTip			RingMCP			RingPIP			RingTip			PinkyMCP			PinkyPIP			PinkyTip			BackHand1			BackHand2			BackHand3	
		X0	Y0	Z0	X1	Y1	Z1	X2	Y2	Z2	X3	Y3	Z3	X4	Y4	Z4	X5	Y5	Z5	X6	Y6	Z6	X7	Y7	Z7	X8	Y8	Z8	X9	Y9	Z9	X10	Y10	Z10	X11	Y11	Z11	X12	Y12	Z12	X13	Y13	Z13	X14	Y14	Z14	X15	Y15	Z15	X16	Y16	Z16	X17	Y17	Z17	X18	Y18	Z18	
26	0.216667	103.399	16.8525	-13.9163	83.0359	18.2307	-33.1351	59.3331	23.3431	-56.8921	42.6198	22.8695	-77.4365	104.666	-8.4896	-88.2373	92.6931	-37.853	-80.9509	93.8483	-23.9934	-45.7376	122.592	-25.2994	-88.7777	104.653	-52.6178	-68.1548	111.186	-33.2975	-35.5629	129.706	-45.5324	-79.2166	113.167	-56.8794	-54.8954	125.25	-32.4519	-30.2059	146.226	-56.4179	-65.0413	124.358	-58.1523	-40.5743	135.538	-35.2274	-23.1221	164.279	-1.66491	-43.7949	171.466	4.84846	-9.32594	140.336	24.5921	-24.1599	
27	0.225	107.919	28.3829	-12.3527	85.5015	33.1886	-31.6861	62.9512	38.3113	-61.6504	44.7212	41.0669	-74.1973	93.3205	-15.4107	-83.6495	71.3373	-31.9794	-69.2675	82.2532	-15.2683	-36.5326	103.297	-34.6289	-80.7692	80.5071	-49.9677	-55.8709	94.5742	-23.0081	-27.0616	111.458	-53.6215	-67.4638	89.0412	-54.2403	-42.9701	111.488	-32.2948	-22.2969	120.148	-64.8049	-53.9338	101.999	-62.5954	-25.4604	121.008	-33.5419	-15.3259	157.143	-19.5644	-44.7178	168.663	-4.24837	-9.26982	142.894	15.9244	-32.2227	
28	0.233333	114.702	29.0311	-19.0941	94.0513	39.0979	-40.1358	73.4111	45.8907	-62.1427	54.9519	53.3191	-78.3523	78.6759	-14.162	-80.7879	55.8666	-21.2642	-61.683	77.1834	-5.15551	-32.673	84.1943	-36.9631	-73.7767	60.0962	-37.9378	-48.6395	84.3384	-16.9378	-21.2883	84.7957	-54.2919	-57.1566	69.3499	-48.283	-31.3312	96.1838	-28.4198	-17.8098	94.3271	-65.4089	-42.497	80.1534	-51.5994	-15.9054	106.416	-36.2705	-5.85163	145.207	-31.9626	-40.8898	162.585	-20.7083	-9.86701	141.286	7.32411	-36.3078	
29	0.241667	123.213	26.6641	-20.9349	104.661	40.5788	-41.7687	84.78	52.5789	-70.6016	68.1682	56.4193	-88.3771	72.3683	-14.0998	-77.7582	49.8174	-11.7185	-60.3251	71.5448	-0.380301	-33.6592	70.8414	-35.2162	-69.5923	50.5525	-26.8974	-41.8224	80.2332	-6.98999	-22.0398	71.1512	-50.059	-51.3986	56.7286	-34.7124	-26.6178	89.7548	-21.3372	-17.8812	76.9797	-60.355	-35.9601	66.5035	-40.5223	-9.79344	95.8442	-32.3218	-2.54715	132.417	-42.7391	-38.8593	155.24	-33.5714	-9.77577	141.554	-0.612336	-34.7329	
30	0.25	131.759	24.8787	-29.5762	118.677	39.607	-51.9814	101.914	51.0011	-77.2263	87.0446	57.728	-94.6029	74.7058	-5.384	-82.5611	50.4703	-1.56338	-62.9302	72.2915	8.33447	-38.2504	66.1676	-27.3861	-69.8792	46.32	-12.3328	-43.803	79.9917	-3.12815	-24.8135	59.5271	-40.2296	-50.6271	50.6358	-19.8128	-29	88.1789	-18.8273	-19.0973	64.9179	-48.9115	-34.5269	60.0117	-25.2331	-14.0544	89.4467	-23.5681	-6.90304	123.201	-47.0968	-35.8977	145.916	-38.7906	-11.7211	142.675	-9.59318	-37.8665	
31	0.258333	140.924	21.2155	-33.5229	129.78	35.3314	-61.1802	118.307	47.178	-87.2377	105.199	56.7043	-108.705	80.5247	-7.19062	-85.5497	54.6099	8.12114	-70.3436	79.5595	13.6111	-44.6342	65.1256	-22.4629	-73.941	47.7716	-3.69209	-49.5782	84.9984	5.26977	-30.8031	57.6035	-29.8521	-53.2318	52.1158	-9.99456	-31.2042	86.0397	-8.22931	-24.5216	60.4034	-42.1601	-34.3897	58.1905	-15.5039	-17.7812	90.1963	-16.8804	-13.1349	119.331	-46.0393	-37.601	146.936	-40.5616	-12.7556	143.159	-17.1401	-39.9031	
32	0.266667	153.192	21.7026	-36.9543	143.287	33.125	-67.4802	135.002	44.0061	-97.7771	122.574	51.5751	-117.906	89.9273	-5.82912	-91.7864	64.5326	15.674	-79.2531	86.5568	20.7352	-55.5611	75.4073	-18.9117	-78.8277	56.4546	6.74909	-59.538	89.9993	7.41465	-36.2731	63.6864	-26.0275	-58.6984	56.2036	-1.87049	-41.0015	91.5218	-6.38523	-28.2899	64.8354	-35.9545	-40.3079	59.9388	-8.86247	-21.1612	94.308	-14.4521	-18.1348	122.273	-47.9419	-36.9196	144.173	-43.6289	-11.8345	146.827	-19.7753	-44.458	
33	0.275	160.701	20.0188	-40.4231	157.206	32.8158	-67.1264	150.021	42.6246	-99.2079	141.506	48.8693	-124.732	99.8814	-3.85648	-101.142	76.1073	13.4568	-90.7493	97.476	19.218	-62.2023	85.4997	-20.6602	-83.3679	65.6105	6.98261	-69.3697	96.8153	12.0553	-45.2318	69.7096	-23.7085	-65.5697	63.5679	-0.183653	-48.9242	94.9796	-3.08891	-33.3986	69.756	-32.4354	-47.2265	66.8321	-4.35027	-31.3438	101.269	-10.5202	-20.3302	130.509	-46.8591	-40.4007	150.631	-41.0462	-16.056	158.699	-15.7947	-44.8742	
34	0.283333	166.611	19.5462	-43.6457	165.593	32.0973	-72.6501	158.898	39.5823	-99.6842	154.09	47.8798	-127.873	113.555	-10.8084	-102.698	88.6343	11.4437	-97.2563	107.505	18.6245	-70.1003	98.2208	-19.7227	-95.6923	76.7495	1.58105	-80.6238	107.721	7.74617	-52.5581	85.2655	-28.0064	-75.803	72.403	-6.37303	-61.1206	107.44	-3.28559	-43.046	81.8308	-36.2329	-55.4576	75.4962	-8.54593	-40.8602	106.377	-9.2802	-30.0296	139.767	-46.1817	-40.3403	160.297	-38.4121	-14.2796	166.52	-16.4721	-48.0431	
35	0.291667	171.626	23.6983	-40.5105	169.104	34.2094	-74.1567	165.102	43.755	-103.765	156.198	46.66	-126.384	127.049	-10.428	-111.864	100.222	-0.71265	-104.318	114.104	15.8224	-75.6803	111.573	-26.827	-101.746	86.8878	-6.96559	-86.91	112.316	1.3036	-56.1929	100.031	-38.2619	-81.1991	84.4479	-12.0846	-69.4627	114.183	-9.2392	-45.867	95.0042	-43.541	-65.0543	84.2052	-19.3085	-52.9562	112.753	-14.7722	-35.4622	156.912	-44.5826	-46.5302	172.392	-36.261	-14.0523	177.048	-15.2495	-46.7881	
36	0.3	172.702	27.8265	-42.4125	169.052	40.6911	-67.9919	166.126	48.328	-105.403	159.092	54.7126	-125.764	141.22	-12.7674	-112.087	111.193	-2.37135	-110.623	119.641	8.54503	-77.9365	129.691	-25.9618	-107.353	100.121	-15.5339	-94.5024	120.69	1.43587	-61.573	118.735	-41.7654	-89.1224	96.4099	-22.4349	-75.4136	122.277	-12.9378	-52.4594	115.112	-53.6316	-69.6965	94.9762	-26.9883	-56.4815	117.737	-17.6766	-41.169	169.566	-40.2652	-48.1259	182.465	-31.6498	-20.3524	186.332	-6.09072	-43.7569	
37	0.308333	167.726	34.1571	-35.001	165.115	50.7286	-63.6091	162.384	60.1914	-100.66	155.43	65.6676	-121.797	153.231	-4.53957	-112.007	121.983	-5.788	-113.003	124.224	12.2742	-80.0911	144.597	-24.506	-110.007	111.48	-20.8925	-98.1965	126.364	-4.70695	-63.0695	136.178	-42.0146	-95.6283	108.513	-28.0358	-81.8615	127.477	-13.8288	-57.22	131.377	-55.4277	-77.968	107.387	-35.3682	-64.6269	129.325	-21.8542	-44.6538	183.817	-33.9504	-48.4579	190.803	-27.6292	-19.1698	189.684	2.80816	-46.5071	
38	0.316667	159.449	39.6739	-29.8534	154.353	56.0631	-57.3301	151.188	67.9611	-92.4261	142.777	75.3092	-111.186	156.224	5.08895	-113.972	125.946	0.396984	-113.538	127.329	10.3826	-78.6156	156.378	-18.0258	-109.865	121.307	-18.2975	-104.507	126.876	-2.51702	-65.7639	146.896	-34.3478	-101.033	119.644	-33.6314	-89.958	131.94	-14.6328	-59.5499	150.088	-50.5727	-83.3196	119.938	-43.4771	-73.532	132.315	-25.5762	-49.49	189.647	-21.9956	-48.3197	193.66	-14.4575	-18.3699	189.827	14.1902	-41.1322	
39	0.325	142.894	42.0984	-24.449	137.312	55.0864	-54.2104	131.63	66.3977	-84.1101	121.096	76.3746	-101.776	156.305	20.1548	-106.896	127.301	4.71057	-115.623	122.014	9.2714	-78.4066	158.986	-3.64808	-111.934	126.07	-18.7078	-104.665	128.801	-7.1548	-65.9183	156.5	-29.5113	-102.956	128.277	-32.0789	-92.7587	136.428	-15.8822	-60.0477	161.575	-40.2766	-88.4345	129.853	-43.3066	-77.0924	139.96	-27.6467	-49.1391	193.126	-11.8076	-47.1624	191.739	-8.36254	-11.9871	180.424	25.812	-35.2429	
40	0.333333	127.688	35.317	-21.3299	116.342	47.1756	-44.9799	105.925	64.1533	-72.4929	97.664	73.4369	-92.6033	149.164	29.9885	-103.474	128.984	5.92453	-113.701	121.791	6.00716	-75.3221	161.785	5.89537	-107.541	133.208	-13.8015	-109.448	127.957	-9.76667	-67.6747	166.533	-17.2924	-100.404	137.514	-30.2515	-96.5799	137.944	-20.8239	-61.614	172.224	-33.6382	-89.9672	141.07	-43.9146	-80.4341	144.429	-31.0561	-50.7851	189.048	3.92219	-44.2916	188.303	2.05752	-9.1894	167.381	28.2153	-27.705	
41	0.341667	117.607	25.7139	-17.3452	101.303	38.4126	-38.2148	90.8955	55.6478	-66.9482	77.0444	67.2466	-86.3811	141.563	38.8463	-99.0533	128.751	11.5737	-113.162	118.892	3.60321	-80.03	157.897	18.9309	-106.581	140.006	-10.8405	-108.676	133.719	-10.6336	-67.29	169.475	-4.46347	-101.882	147.204	-23.0309	-101.117	144.814	-17.5293	-61.472	181.993	-18.1023	-88.041	150.959	-34.9586	-83.6167	151.15	-29.9616	-54.3457	186.582	15.6519	-36.842	181.935	8.69171	-7.84541	153.91	33.9358	-20.8606	
42	0.35	113.637	20.5251	-17.017	96.3176	29.9539	-37.6093	79.6233	48.5646	-64.6491	65.343	58.653	-83.6591	141.111	41.4808	-97.4826	134.256	17.9728	-112.67	124.494	2.87791	-81.4801	160.775	27.5152	-102.758	148.866	-2.31533	-110.667	137.391	-10.7409	-70.3445	171.666	10.9942	-97.1264	156.235	-16.0517	-100.035	146.522	-14.9055	-66.2714	188.739	-4.14481	-85.8503	165.967	-29.114	-88.1954	157.623	-25.38	-54.4891	182.273	25.9262	-31.5657	179.453	16.4096	-3.08646	147.198	36.7703	-19.9902	
43	0.358333	108.222	19.4852	-15.1234	94.7525	26.2704	-38.1205	77.0101	39.8321	-63.7717	64.3186	46.4153	-83.0649	139.879	42.0864	-91.3546	131.992	13.1047	-110.724	124.686	-0.265377	-80.514	158.891	31.2421	-95.2295	147.424	-1.43832	-107.894	138.612	-12.3495	-71.1178	174.969	15.5522	-93.1968	159.661	-14.6263	-95.6646	154.193	-15.4933	-61.7681	190.932	1.47688	-83.5204	169.4	-23.74	-84.2944	162.266	-22.7291	-52.6123	178.515	31.158	-27.9945	175.68	23.5231	1.33004	145.686	36.0301	-14.4182	
44	0.366667	110.592	17.8049	-17.5623	93.4343	21.7852	-37.9146	75.7486	30.9443	-65.7107	61.7027	35.4352	-86.7543	136.91	31.702	-97.4452	131.805	3.26795	-108.21	127.912	-7.23372	-71.9033	156.856	21.0202	-97.0185	150.537	-13.7443	-100.492	138.5	-16.7891	-62.3621	174.134	4.08388	-92.3249	159.453	-23.2006	-88.1533	153.745	-17.0163	-54.7135	186.496	-2.90621	-77.1464	169.794	-31.0369	-73.8124	160.218	-20.6793	-46.4863	178.533	33.4515	-31.1764	173.056	23.9845	5.37876	140.897	37.3542	-14.8626	
45	0.375	108.137	16.9692	-15.6161	90.0028	19.9444	-39.9989	71.3407	26.1975	-67.6598	57.46	27.1256	-88.9451	136.427	22.4203	-92.4699	128.151	-9.32994	-101.349	122.684	-12.119	-63.9951	154.15	11.653	-94.6016	145.14	-22.2505	-95.6436	136.564	-21.1324	-54.1812	170.847	-1.75722	-85.3755	156.847	-31.2465	-79.284	149.335	-19.1428	-46.6302	186.681	-13.9118	-74.0781	166.673	-35.3671	-66.7251	160.289	-25.0714	-34.307	173.737	29.9411	-29.7225	173.933	27.0259	7.07853	137.156	38.6428	-18.7445	
